<svg id="Capa_1" enable-background="new 0 0 512 512" height="512" viewBox="0 0 512 512" width="512" xmlns="http://www.w3.org/2000/svg"><g><path d="m437.02 74.98c-48.352-48.351-112.64-74.98-181.02-74.98s-132.668 26.629-181.02 74.981-74.98 112.639-74.98 181.019 26.629 132.667 74.98 181.019c48.352 48.352 112.64 74.981 181.02 74.981s132.668-26.629 181.02-74.981 74.98-112.639 74.98-181.019-26.629-132.667-74.98-181.02zm44.894 264.95-27.82-11.24c7.469-20.292 11.891-42.041 12.74-64.69h30.02c-.874 26.617-6.079 52.154-14.94 75.93zm-50.199 80.824-21.215-21.215c15.532-16.707 28.404-35.918 37.912-56.966l27.825 11.242c-11.057 24.796-26.182 47.391-44.522 66.939zm-78.323 55.667-11.242-27.825c21.367-9.595 40.852-22.649 57.755-38.438l21.216 21.216c-19.742 18.599-42.612 33.906-67.729 45.047zm-262.039-44.606 21.215-21.215c16.922 15.711 36.414 28.686 57.773 38.212l-11.242 27.824c-25.109-11.07-47.983-26.302-67.746-44.821zm-55.664-78.172 27.824-11.242c9.605 21.314 22.656 40.75 38.428 57.612l-21.215 21.215c-18.582-19.701-33.885-42.522-45.037-67.585zm-20.542-89.643h30.02c.846 22.583 5.242 44.273 12.673 64.515l-27.82 11.24c-8.822-23.726-14.002-49.204-14.873-75.755zm14.452-90.64 27.843 11.25c-7.293 20.22-11.575 41.864-12.313 64.39h-30.02c.76-26.495 5.809-51.934 14.49-75.64zm51.027-82.48 21.216 21.215c-15.995 17.124-29.178 36.901-38.807 58.597l-27.825-11.242c11.171-25.447 26.61-48.608 45.416-68.57zm78.402-55.485 11.242 27.825c-21.376 9.544-40.88 22.543-57.809 38.281l-21.216-21.216c19.769-18.547 42.656-33.802 67.783-44.89zm262.2 45.331-21.215 21.216c-16.908-15.816-36.406-28.894-57.791-38.506l11.242-27.825c25.133 11.157 48.016 26.488 67.764 45.115zm55.487 78.552-27.825 11.242c-9.534-21.429-22.536-40.983-38.291-57.952l21.215-21.216c18.564 19.811 33.824 42.747 44.901 67.926zm-220.715 292.722c-108.075 0-196-87.925-196-196s87.925-196 196-196 196 87.925 196 196-87.925 196-196 196zm72.331-394.226c-20.489-7.5-42.456-11.896-65.331-12.645v-30.02c26.844.77 52.6 5.95 76.572 14.841zm-80.331-12.607c-22.327.837-43.779 5.149-63.824 12.428l-11.246-27.836c23.53-8.667 48.775-13.749 75.071-14.612v30.02zm-63.751 409.264c20.024 7.263 41.451 11.566 63.751 12.402v30.02c-26.268-.861-51.489-5.933-74.998-14.584zm78.751 12.44c22.847-.749 44.79-5.136 65.257-12.619l11.242 27.826c-23.951 8.874-49.683 14.044-76.499 14.813zm203.871-217.871c-.74-22.592-5.044-44.296-12.375-64.566l27.842-11.249c8.719 23.756 13.791 49.255 14.553 75.815z"/><path d="m407 233.5c-12.406 0-22.5 10.093-22.5 22.5s10.094 22.5 22.5 22.5 22.5-10.093 22.5-22.5-10.094-22.5-22.5-22.5zm0 30c-4.136 0-7.5-3.364-7.5-7.5s3.364-7.5 7.5-7.5 7.5 3.364 7.5 7.5-3.364 7.5-7.5 7.5z"/><circle cx="384.167" cy="202.5" r="10"/><circle cx="384.167" cy="309.5" r="10"/><path d="m218 241h79c20.126 0 36.5-16.374 36.5-36.5s-16.374-36.5-36.5-36.5h-79c-5.79 0-10.5 4.71-10.5 10.5v52c0 5.79 4.71 10.5 10.5 10.5zm4.5-58h74.5c11.855 0 21.5 9.645 21.5 21.5s-9.645 21.5-21.5 21.5h-74.5z"/><path d="m363.5 204.5c0-31.331-21.786-57.653-51-64.657v-14.343c0-9.649-7.851-17.5-17.5-17.5h-10c-9.649 0-17.5 7.851-17.5 17.5v12.5h-15v-12.5c0-9.649-7.851-17.5-17.5-17.5h-10c-9.649 0-17.5 7.851-17.5 17.5v12.5h-41.5c-9.649 0-17.5 7.851-17.5 17.5v10c0 9.649 7.851 17.5 17.5 17.5h11.5v16c0 4.142 3.357 7.5 7.5 7.5s7.5-3.358 7.5-7.5v-20.5c0-5.79-4.71-10.5-10.5-10.5h-16c-1.379 0-2.5-1.122-2.5-2.5v-10c0-1.378 1.121-2.5 2.5-2.5h131c28.397 0 51.5 23.103 51.5 51.5 0 17.194-8.544 33.189-22.854 42.789-2.911 1.952-4.648 5.209-4.648 8.711s1.737 6.759 4.648 8.711c14.31 9.6 22.854 25.595 22.854 42.789 0 28.397-23.103 51.5-51.5 51.5h-131c-1.379 0-2.5-1.122-2.5-2.5v-10c0-1.378 1.121-2.5 2.5-2.5h16c5.79 0 10.5-4.71 10.5-10.5v-99.5c0-4.142-3.357-7.5-7.5-7.5s-7.5 3.358-7.5 7.5v95h-11.5c-9.649 0-17.5 7.851-17.5 17.5v10c0 9.649 7.851 17.5 17.5 17.5h41.5v12.5c0 9.649 7.851 17.5 17.5 17.5h10c9.649 0 17.5-7.851 17.5-17.5v-12.5h15v12.5c0 9.649 7.851 17.5 17.5 17.5h10c9.649 0 17.5-7.851 17.5-17.5v-14.343c29.214-7.004 51-33.326 51-64.657 0-20.096-9.032-38.92-24.442-51.5 15.41-12.579 24.442-31.404 24.442-51.5zm-141-79c0-1.378 1.121-2.5 2.5-2.5h10c1.379 0 2.5 1.122 2.5 2.5v12.5h-15zm60 12.5v-12.5c0-1.378 1.121-2.5 2.5-2.5h10c1.379 0 2.5 1.122 2.5 2.5v12.513c-.167-.001-.332-.013-.5-.013zm-45 248.5c0 1.378-1.121 2.5-2.5 2.5h-10c-1.379 0-2.5-1.122-2.5-2.5v-12.5h15zm60 0c0 1.378-1.121 2.5-2.5 2.5h-10c-1.379 0-2.5-1.122-2.5-2.5v-12.5h14.5c.168 0 .333-.011.5-.013z"/><path d="m207.5 333.5c0 5.79 4.71 10.5 10.5 10.5h79c20.126 0 36.5-16.374 36.5-36.5s-16.374-36.5-36.5-36.5h-21.5c-4.143 0-7.5 3.358-7.5 7.5s3.357 7.5 7.5 7.5h21.5c11.855 0 21.5 9.645 21.5 21.5s-9.645 21.5-21.5 21.5h-74.5v-43h18c4.143 0 7.5-3.358 7.5-7.5s-3.357-7.5-7.5-7.5h-22.5c-5.79 0-10.5 4.71-10.5 10.5z"/><path d="m127.5 256c0-12.407-10.094-22.5-22.5-22.5s-22.5 10.093-22.5 22.5 10.094 22.5 22.5 22.5 22.5-10.093 22.5-22.5zm-22.5 7.5c-4.136 0-7.5-3.364-7.5-7.5s3.364-7.5 7.5-7.5 7.5 3.364 7.5 7.5-3.364 7.5-7.5 7.5z"/><circle cx="127.833" cy="202.5" r="10"/><circle cx="127.833" cy="309.5" r="10"/></g></svg>