<?xml version="1.0" encoding="UTF-8"?>
<svg xmlns="http://www.w3.org/2000/svg" id="Layer_1" data-name="Layer 1" viewBox="0 0 512 512" width="512" height="512"><path d="M14.121,211.507A28.767,28.767,0,0,1,30.7,225.274a6,6,0,0,0,5.3,3.188c.132,0,.264,0,.4-.013a6,6,0,0,0,5.228-3.9,29.348,29.348,0,0,1,14.69-16.033,6,6,0,0,0-.776-11.079,28.76,28.76,0,0,1-16.579-13.766,6,6,0,0,0-10.924.722,29.339,29.339,0,0,1-14.689,16.033,6,6,0,0,0,.776,11.078Zm20.295-13.7a40.518,40.518,0,0,0,7.287,6.163,41.155,41.155,0,0,0-6.462,7.18,40.476,40.476,0,0,0-7.286-6.164A41.063,41.063,0,0,0,34.416,197.8Z"/><path d="M421.486,115.081a29.336,29.336,0,0,1,14.69,16.032,6,6,0,0,0,5.228,3.9c.133.009.265.013.4.013a6,6,0,0,0,5.3-3.188,28.761,28.761,0,0,1,16.578-13.766,6,6,0,0,0,.777-11.079,29.341,29.341,0,0,1-14.69-16.033,6,6,0,0,0-10.924-.722A28.76,28.76,0,0,1,422.263,104a6,6,0,0,0-.777,11.079Zm21.9-10.717a41.068,41.068,0,0,0,6.462,7.179,40.489,40.489,0,0,0-7.287,6.164,41.033,41.033,0,0,0-6.461-7.18A40.546,40.546,0,0,0,443.383,104.364Z"/><path d="M179.347,265.887a78.96,78.96,0,1,0,78.961,78.96A79.05,79.05,0,0,0,179.347,265.887Zm6,12.282a66.658,66.658,0,0,1,36.888,15.3l-8.753,8.754a54.367,54.367,0,0,0-28.135-11.684Zm-12,0v12.374a54.375,54.375,0,0,0-28.135,11.684l-8.753-8.754A66.661,66.661,0,0,1,173.347,278.169Zm-45.373,23.789,8.753,8.754a54.366,54.366,0,0,0-11.683,28.135H112.67A66.647,66.647,0,0,1,127.974,301.958Zm-15.3,48.889h12.374a54.366,54.366,0,0,0,11.683,28.134l-8.753,8.754A66.647,66.647,0,0,1,112.67,350.847Zm60.677,60.677a66.644,66.644,0,0,1-36.888-15.3l8.753-8.753a54.366,54.366,0,0,0,28.135,11.683Zm-36.64-66.677a42.64,42.64,0,1,1,42.64,42.64A42.688,42.688,0,0,1,136.707,344.847Zm48.64,66.677V399.15a54.366,54.366,0,0,0,28.135-11.683l8.754,8.753A66.65,66.65,0,0,1,185.347,411.524Zm45.374-23.789-8.753-8.754a54.374,54.374,0,0,0,11.683-28.134h12.374A66.661,66.661,0,0,1,230.721,387.735Zm2.93-48.888a54.374,54.374,0,0,0-11.683-28.135l8.753-8.754a66.662,66.662,0,0,1,15.3,36.889Z"/><path d="M179.866,339.154a6.693,6.693,0,0,1,0-13.384,6.52,6.52,0,0,1,5.233,2.621,6,6,0,0,0,9.567-7.245,18.478,18.478,0,0,0-9.151-6.5v-1.4a6,6,0,0,0-12,0v1.672a18.693,18.693,0,0,0,6.351,36.237,6.693,6.693,0,0,1,0,13.385,6.525,6.525,0,0,1-5.234-2.622,6,6,0,0,0-9.566,7.246,18.506,18.506,0,0,0,8.8,6.383v.666a6,6,0,0,0,12,0v-.691a18.7,18.7,0,0,0-6-36.367Z"/><path d="M304.373,240.282a2.735,2.735,0,0,1,0,5.462,2.527,2.527,0,0,1-2.027-1.04,6,6,0,1,0-9.6,7.2,14.547,14.547,0,0,0,5.686,4.55,5.993,5.993,0,0,0,11.879,0,14.747,14.747,0,0,0-5.94-28.171,2.735,2.735,0,0,1,0-5.462,2.528,2.528,0,0,1,2.028,1.04,6,6,0,0,0,9.6-7.2,14.537,14.537,0,0,0-5.674-4.544,6,6,0,0,0-11.9,0,14.747,14.747,0,0,0,5.952,28.165Z"/><path d="M72.078,348.5a6,6,0,1,0-11.926,1.332c2.1,18.777,6.895,39.229,14.259,60.787a6,6,0,0,0,11.356-3.879C78.784,386.3,74.05,366.162,72.078,348.5Z"/><path d="M64.972,336.514h.036a6,6,0,0,0,5.965-6.035q-.014-2.148.037-4.285a6,6,0,0,0-12-.284c-.036,1.513-.05,3.074-.04,4.639A6,6,0,0,0,64.972,336.514Z"/><path d="M496,343.168H481.444V289.983a6,6,0,0,0-6-6H434.415c12.075-51.23,4.94-82.273-4.752-100.277a52.027,52.027,0,0,1,11.17-5.125,6,6,0,0,0,.842-11.074,50.53,50.53,0,0,1-25.124-27.787,6,6,0,0,0-10.919-.789,48.1,48.1,0,0,1-6.024,8.7,133.535,133.535,0,0,0-46.927-30.328,14.22,14.22,0,0,0-7.976-11.638,55.453,55.453,0,0,0,15.618-18.4l16.464-31.288a6,6,0,0,0-8.119-8.1c-8.451,4.479-19.351-.316-27.006-5.126a56.173,56.173,0,0,0-50.543-4.891c-12.948,5.177-19.478,13.4-21.965,17.245-23.985,10.361-37.509-5.024-38.142-5.768a6,6,0,0,0-10.128,6.2l11.831,27.737a55.3,55.3,0,0,0,20.345,24.389,14.078,14.078,0,0,0-4.97,10.352c-13.557,5.682-28.561,15.519-41.749,27.374a48.027,48.027,0,0,0-19.66-14.086,56.169,56.169,0,0,0-50.544,4.891c-7.656,4.81-18.555,9.6-27.006,5.126a6,6,0,0,0-8.119,8.1l16.464,31.288a55.453,55.453,0,0,0,15.618,18.4,14.22,14.22,0,0,0-7.976,11.638,133.523,133.523,0,0,0-46.927,30.329,48.208,48.208,0,0,1-6.024-8.7,6,6,0,0,0-10.919.789,50.523,50.523,0,0,1-25.124,27.787,6,6,0,0,0,.842,11.074,52.053,52.053,0,0,1,11.163,5.12c-11.669,21.485-14.222,50.675-7.567,86.9,5.849,31.839,17.132,59.661,21.711,70.144a6.491,6.491,0,0,1-.307,5.759,48.1,48.1,0,0,0-5.915,23.143A15.11,15.11,0,0,0,71.289,478,50.587,50.587,0,0,0,106.782,463.7l.076-.074a25.181,25.181,0,0,1,17.451-7.015H234.386a25.176,25.176,0,0,1,17.446,7.011l.088.085A50.58,50.58,0,0,0,287.406,478a14.731,14.731,0,0,0,9.8-3.808h187.58a6,6,0,0,0,6-6V415.007H496a6,6,0,0,0,6-6V349.168A6,6,0,0,0,496,343.168Zm-26.556-47.185v7.827H403.975v-7.827Zm-65.469,27.462V315.81h65.469v7.635Zm65.469,12v7.723H403.975v-7.723ZM410.031,153.9a62.28,62.28,0,0,0,16.071,18,61.336,61.336,0,0,0-18.409,15.317,62.27,62.27,0,0,0-16.071-18A61.348,61.348,0,0,0,410.031,153.9ZM335.278,52.921c8.907,5.6,17.332,8.525,24.961,8.74L349.7,81.682A44.18,44.18,0,0,1,317.446,104.6l8.717-44.483a6,6,0,0,0-2.212-5.9c-.523-.405-8.758-6.576-23.247-6.874A44.451,44.451,0,0,1,335.278,52.921Zm5.459,65.46a2.673,2.673,0,0,1-2.477,2.218H262.548a2.231,2.231,0,1,1,0-4.436H273.9a58.444,58.444,0,0,0,11,1.048h25.134a58.491,58.491,0,0,0,11.011-1.048H338.26A2.361,2.361,0,0,1,340.737,118.381Zm-96.984-39.81L239.458,68.5c8.518,2.856,21.02,4.019,36.441-3.256,19.266-9.089,32.142-5.694,37.661-3.221L305.1,105.211H284.9A44.41,44.41,0,0,1,243.753,78.571Zm9.193,50.42a14.548,14.548,0,0,0,9.6,3.608H338.26a14.552,14.552,0,0,0,10.066-4.117,120.665,120.665,0,0,1,42.367,27.191,51.687,51.687,0,0,1-13.8,6.862,6,6,0,0,0-.842,11.074A50.526,50.526,0,0,1,401.173,201.4a6,6,0,0,0,5.2,3.928c.146.011.29.016.434.016a6,6,0,0,0,5.281-3.155,48.215,48.215,0,0,1,8.012-10.867c13.461,26.909,9.024,63.986,1.975,92.665H363.817a80.592,80.592,0,0,0,17.153-48.841c0-43.1-34.767-78.174-77.5-78.174-16.511,0-33.222,5.9-47.058,16.617a84.115,84.115,0,0,0-26.89,35.931,14.134,14.134,0,0,0-4.781-8.409,55.3,55.3,0,0,0,20.345-24.389l11.831-27.737a6,6,0,0,0-10.124-6.2c-.5.589-10.739,12.311-29.129,8.643C229.11,141.663,241.647,133.676,252.946,128.991ZM391.975,295.983v47.185H368.456V295.983ZM290.986,323.445V315.81h65.47v7.635Zm65.47,12v7.723h-65.47v-7.723Zm-65.47-31.635v-7.827h65.47v7.827ZM261.913,184.672a66.483,66.483,0,0,1,35.195-15.346l.241,11.852A49.886,49.886,0,0,0,270.261,193.1Zm.16,17.212a54.372,54.372,0,0,0-9.666,21.44,132.1,132.1,0,0,0-12.517-7.279,73.525,73.525,0,0,1,13.462-22.964Zm40.3-8.977c21.176,0,38.4,18.023,38.4,40.176s-17.228,40.176-38.4,40.176c-.937,0-2.036-.056-3.154-.151A155.287,155.287,0,0,0,263.4,231.354C264.8,210.247,282.068,192.907,302.369,192.907Zm33.379,1.127a49.5,49.5,0,0,0-26.391-12.614l-.249-12.191a64.844,64.844,0,0,1,36.259,15.1Zm18.059-1.179a66.24,66.24,0,0,1,14.882,36.287H352.615a53.011,53.011,0,0,0-9-26Zm-10.4,91.128h-30a49.511,49.511,0,0,0,20.142-9.951Zm10.343-6.61L341.894,265.4a52.853,52.853,0,0,0,10.276-24.262h16.488A69.231,69.231,0,0,1,353.752,277.373ZM201.9,158.684c14.407,6.8,26.891,6.381,36.451,3.235l-4.305,10.091A44.41,44.41,0,0,1,192.9,198.65H172.7l-8.463-43.18C169.8,152.98,182.664,149.61,201.9,158.684Zm15.827,53.136a2.361,2.361,0,0,1-2.476,2.218H139.539a2.674,2.674,0,0,1-2.477-2.218,2.361,2.361,0,0,1,2.477-2.218h17.215a58.491,58.491,0,0,0,11.011,1.048H192.9a58.444,58.444,0,0,0,11-1.048h11.352A2.36,2.36,0,0,1,217.727,211.82Zm-89.632-36.7L117.56,155.1c7.628-.216,16.055-3.145,24.961-8.741a44.455,44.455,0,0,1,34.574-5.579c-14.489.3-22.723,6.468-23.246,6.874a6,6,0,0,0-2.213,5.9l8.718,44.483A44.18,44.18,0,0,1,128.1,175.121ZM67.768,247.339a61.352,61.352,0,0,0,18.41,15.316,62.242,62.242,0,0,0-16.071,18A61.349,61.349,0,0,0,51.7,265.338,62.249,62.249,0,0,0,67.768,247.339ZM299.542,403.007H294.33a6,6,0,0,0-6,6V465.82a2.908,2.908,0,0,1-.923.18,38.639,38.639,0,0,1-27.113-10.894l-.085-.082a36.779,36.779,0,0,0-25.823-10.418H124.309a36.788,36.788,0,0,0-25.828,10.422l-.073.072A38.649,38.649,0,0,1,71.289,466a3.065,3.065,0,0,1-3.238-2.93,36.05,36.05,0,0,1,4.436-17.353,18.413,18.413,0,0,0,.783-16.335c-4.413-10.1-15.282-36.9-20.906-67.51-5.946-32.371-4.128-58.244,5.344-77.1a48.244,48.244,0,0,1,8,10.854,6,6,0,0,0,5.282,3.156c.144,0,.288,0,.433-.016a6,6,0,0,0,5.2-3.929,50.524,50.524,0,0,1,25.124-27.786,6,6,0,0,0-.842-11.074,51.643,51.643,0,0,1-13.8-6.862,120.659,120.659,0,0,1,42.366-27.19,14.556,14.556,0,0,0,10.066,4.116h75.712a14.548,14.548,0,0,0,9.633-3.635c27.275,10.859,51.068,32.87,66.716,61.58h-6.614a6,6,0,0,0-6,6v59.185a6,6,0,0,0,6,6h14.556ZM365.8,462.192H300.33v-7.723H365.8Zm0-19.723H300.33v-7.635H365.8Zm0-19.635H300.33v-7.827H365.8Zm11.213-19.827h-65.47V394.63h65.47Zm0-20.377h-65.47V375h65.47Zm0-19.635h-65.47v-7.827h65.47Zm24.306,99.2H377.8V415.007h23.519Zm11.212-59.185H389.012V355.168H412.53Zm66.258,59.185h-65.47v-7.723h65.47Zm0-19.723h-65.47v-7.635h65.47Zm0-19.635h-65.47v-7.827h65.47ZM490,403.007H424.53V394.63H490Zm0-20.377H424.53V375H490ZM490,363H424.53v-7.827H490Z"/></svg>
