<svg id="visual" viewBox="0 0 1920 600" width="1920" height="600" xmlns="http://www.w3.org/2000/svg" xmlns:xlink="http://www.w3.org/1999/xlink" version="1.1"><path d="M0 112L64 109.3C128 106.7 256 101.3 384 93.5C512 85.7 640 75.3 768 74.7C896 74 1024 83 1152 91.3C1280 99.7 1408 107.3 1536 105.5C1664 103.7 1792 92.3 1856 86.7L1920 81L1920 0L1856 0C1792 0 1664 0 1536 0C1408 0 1280 0 1152 0C1024 0 896 0 768 0C640 0 512 0 384 0C256 0 128 0 64 0L0 0Z" fill="#7F49E8" stroke-linecap="round" stroke-linejoin="miter"></path></svg>