<svg id="visual" viewBox="0 0 1920 530" width="1920" height="530" xmlns="http://www.w3.org/2000/svg" xmlns:xlink="http://www.w3.org/1999/xlink" version="1.1"><path d="M0 125L32 128C64 131 128 137 192 126.8C256 116.7 320 90.3 384 78C448 65.7 512 67.3 576 76.3C640 85.3 704 101.7 768 115.8C832 130 896 142 960 140.5C1024 139 1088 124 1152 108C1216 92 1280 75 1344 74C1408 73 1472 88 1536 101.2C1600 114.3 1664 125.7 1728 130.8C1792 136 1856 135 1888 134.5L1920 134L1920 0L1888 0C1856 0 1792 0 1728 0C1664 0 1600 0 1536 0C1472 0 1408 0 1344 0C1280 0 1216 0 1152 0C1088 0 1024 0 960 0C896 0 832 0 768 0C704 0 640 0 576 0C512 0 448 0 384 0C320 0 256 0 192 0C128 0 64 0 32 0L0 0Z" fill="#33334B" stroke-linecap="round" stroke-linejoin="miter"></path></svg>